<mxfile modified="2020-12-15T09:18:05.158Z" host="1d9dd3f5-e4d6-4ed5-93d4-edbda758e908" agent="5.0 (Macintosh; Intel Mac OS X 11_0_0) AppleWebKit/537.36 (KHTML, like Gecko) Code/1.52.0 Chrome/83.0.4103.122 Electron/9.3.5 Safari/537.36" etag="KcXV6dUnPQ0ithNjIIS9" version="13.10.0" type="embed">
    <diagram id="csqqabgtmqgvthtSgO20" name="Page-1">
        <mxGraphModel dx="962" dy="497" grid="1" gridSize="10" guides="1" tooltips="1" connect="1" arrows="1" fold="1" page="1" pageScale="1" pageWidth="850" pageHeight="1100" math="0" shadow="0">
            <root>
                <mxCell id="0"/>
                <mxCell id="1" parent="0"/>
                <mxCell id="lCEBx5OaHAJliDRhZ6I8-3" value="management-api&lt;br&gt;" style="shape=umlLifeline;perimeter=lifelinePerimeter;whiteSpace=wrap;html=1;container=1;collapsible=0;recursiveResize=0;outlineConnect=0;" parent="1" vertex="1">
                    <mxGeometry x="143" y="90" width="100" height="470" as="geometry"/>
                </mxCell>
                <mxCell id="lCEBx5OaHAJliDRhZ6I8-4" value="" style="html=1;points=[];perimeter=orthogonalPerimeter;" parent="lCEBx5OaHAJliDRhZ6I8-3" vertex="1">
                    <mxGeometry x="45" y="193" width="10" height="34" as="geometry"/>
                </mxCell>
                <mxCell id="lCEBx5OaHAJliDRhZ6I8-6" value="" style="html=1;points=[];perimeter=orthogonalPerimeter;" parent="lCEBx5OaHAJliDRhZ6I8-3" vertex="1">
                    <mxGeometry x="45" y="86" width="10" height="74" as="geometry"/>
                </mxCell>
                <mxCell id="lCEBx5OaHAJliDRhZ6I8-7" value="" style="html=1;points=[];perimeter=orthogonalPerimeter;" parent="lCEBx5OaHAJliDRhZ6I8-3" vertex="1">
                    <mxGeometry x="45" y="340" width="10" height="70" as="geometry"/>
                </mxCell>
                <mxCell id="lCEBx5OaHAJliDRhZ6I8-13" value="CSP" style="shape=umlLifeline;perimeter=lifelinePerimeter;whiteSpace=wrap;html=1;container=1;collapsible=0;recursiveResize=0;outlineConnect=0;" parent="1" vertex="1">
                    <mxGeometry x="380" y="90" width="100" height="470" as="geometry"/>
                </mxCell>
                <mxCell id="lCEBx5OaHAJliDRhZ6I8-14" value="" style="html=1;points=[];perimeter=orthogonalPerimeter;" parent="lCEBx5OaHAJliDRhZ6I8-13" vertex="1">
                    <mxGeometry x="45" y="256" width="10" height="44" as="geometry"/>
                </mxCell>
                <mxCell id="lCEBx5OaHAJliDRhZ6I8-15" value="Request PKIO-Cert (CSR)" style="html=1;verticalAlign=bottom;endArrow=block;entryX=0;entryY=0;" parent="1" source="lCEBx5OaHAJliDRhZ6I8-18" target="lCEBx5OaHAJliDRhZ6I8-14" edge="1">
                    <mxGeometry relative="1" as="geometry">
                        <mxPoint x="199.5" y="346" as="sourcePoint"/>
                    </mxGeometry>
                </mxCell>
                <mxCell id="lCEBx5OaHAJliDRhZ6I8-16" value="return PKIO Signed Public Cert" style="html=1;verticalAlign=bottom;endArrow=open;dashed=1;endSize=8;exitX=0;exitY=0.95;" parent="1" source="lCEBx5OaHAJliDRhZ6I8-14" target="lCEBx5OaHAJliDRhZ6I8-18" edge="1">
                    <mxGeometry relative="1" as="geometry">
                        <mxPoint x="199.5" y="422" as="targetPoint"/>
                    </mxGeometry>
                </mxCell>
                <mxCell id="lCEBx5OaHAJliDRhZ6I8-17" value="organization management: config init" style="text;align=center;fontStyle=1;verticalAlign=middle;spacingLeft=3;spacingRight=3;strokeColor=#666666;rotatable=0;points=[[0,0.5],[1,0.5]];portConstraint=eastwest;fillColor=#f5f5f5;fontColor=#333333;" parent="1" vertex="1">
                    <mxGeometry x="60" y="40" width="420" height="26" as="geometry"/>
                </mxCell>
                <mxCell id="lCEBx5OaHAJliDRhZ6I8-18" value="" style="shape=umlLifeline;participant=umlActor;perimeter=lifelinePerimeter;whiteSpace=wrap;html=1;container=1;collapsible=0;recursiveResize=0;verticalAlign=top;spacingTop=36;labelBackgroundColor=#ffffff;outlineConnect=0;" parent="1" vertex="1">
                    <mxGeometry x="60" y="90" width="20" height="470" as="geometry"/>
                </mxCell>
                <mxCell id="lCEBx5OaHAJliDRhZ6I8-20" value="&lt;span&gt;Init org config&amp;nbsp;&lt;/span&gt;&lt;br&gt;&lt;span&gt;(organisation name,&lt;/span&gt;&lt;br&gt;&lt;span&gt;OIN &amp;amp; URL)&lt;/span&gt;" style="html=1;verticalAlign=bottom;startArrow=oval;endArrow=block;startSize=8;exitX=0.5;exitY=0.123;exitDx=0;exitDy=0;exitPerimeter=0;" parent="1" target="lCEBx5OaHAJliDRhZ6I8-6" edge="1">
                    <mxGeometry relative="1" as="geometry">
                        <mxPoint x="70" y="176" as="sourcePoint"/>
                    </mxGeometry>
                </mxCell>
                <mxCell id="lCEBx5OaHAJliDRhZ6I8-21" value="return CSR" style="html=1;verticalAlign=bottom;endArrow=open;dashed=1;endSize=8;exitX=-0.023;exitY=1.005;exitDx=0;exitDy=0;exitPerimeter=0;" parent="1" source="lCEBx5OaHAJliDRhZ6I8-4" target="lCEBx5OaHAJliDRhZ6I8-18" edge="1">
                    <mxGeometry relative="1" as="geometry">
                        <mxPoint x="-60" y="766" as="targetPoint"/>
                        <mxPoint x="150" y="300" as="sourcePoint"/>
                        <Array as="points"/>
                    </mxGeometry>
                </mxCell>
                <mxCell id="lCEBx5OaHAJliDRhZ6I8-22" value="Request CSR" style="html=1;verticalAlign=bottom;endArrow=block;entryX=0.016;entryY=0.009;entryDx=0;entryDy=0;entryPerimeter=0;" parent="1" source="lCEBx5OaHAJliDRhZ6I8-18" target="lCEBx5OaHAJliDRhZ6I8-4" edge="1">
                    <mxGeometry width="80" relative="1" as="geometry">
                        <mxPoint x="70" y="269.5" as="sourcePoint"/>
                        <mxPoint x="195.5" y="269.5" as="targetPoint"/>
                    </mxGeometry>
                </mxCell>
                <mxCell id="lCEBx5OaHAJliDRhZ6I8-27" value="Upload PKIO Cert" style="html=1;verticalAlign=bottom;endArrow=block;entryX=0;entryY=0;" parent="1" source="lCEBx5OaHAJliDRhZ6I8-18" target="lCEBx5OaHAJliDRhZ6I8-7" edge="1">
                    <mxGeometry relative="1" as="geometry">
                        <mxPoint x="125" y="440" as="sourcePoint"/>
                    </mxGeometry>
                </mxCell>
                <mxCell id="lCEBx5OaHAJliDRhZ6I8-28" value="return" style="html=1;verticalAlign=bottom;endArrow=open;dashed=1;endSize=8;exitX=0;exitY=0.95;" parent="1" source="lCEBx5OaHAJliDRhZ6I8-7" target="lCEBx5OaHAJliDRhZ6I8-18" edge="1">
                    <mxGeometry relative="1" as="geometry">
                        <mxPoint x="125" y="516" as="targetPoint"/>
                    </mxGeometry>
                </mxCell>
                <mxCell id="lCEBx5OaHAJliDRhZ6I8-51" value="Note:&lt;br&gt;&lt;br&gt;1. when initializing the 'organization config' through the management-api you can retrieve the CSR as input for acquiring a PKIO Cert from the CSP.&lt;br&gt;&lt;br&gt;2. The PKIO cert is uploaded to the organization config store via the management-api. It is stored in the etcd cluster&amp;nbsp;&lt;br&gt;&lt;br&gt;&lt;br&gt;" style="shape=note;whiteSpace=wrap;html=1;size=14;verticalAlign=top;align=left;spacingTop=-6;" parent="1" vertex="1">
                    <mxGeometry x="510" y="40" width="200" height="520" as="geometry"/>
                </mxCell>
                <mxCell id="lCEBx5OaHAJliDRhZ6I8-52" value="&lt;div style=&quot;text-align: left&quot;&gt;&lt;span&gt;1&lt;/span&gt;&lt;/div&gt;" style="shape=curlyBracket;whiteSpace=wrap;html=1;rounded=1;size=0.4166666666666705;align=right;labelPosition=left;verticalLabelPosition=middle;verticalAlign=middle;" parent="1" vertex="1">
                    <mxGeometry x="40" y="140" width="20" height="260" as="geometry"/>
                </mxCell>
                <mxCell id="lCEBx5OaHAJliDRhZ6I8-53" value="&lt;div style=&quot;text-align: left&quot;&gt;&lt;span&gt;2&lt;/span&gt;&lt;/div&gt;" style="shape=curlyBracket;whiteSpace=wrap;html=1;rounded=1;size=0.4166666666666705;align=right;labelPosition=left;verticalLabelPosition=middle;verticalAlign=middle;" parent="1" vertex="1">
                    <mxGeometry x="40" y="420" width="20" height="90" as="geometry"/>
                </mxCell>
                <mxCell id="cHNWFu6GlAEhoqhcr353-1" value="" style="html=1;points=[];perimeter=orthogonalPerimeter;" parent="1" vertex="1">
                    <mxGeometry x="193" y="191" width="10" height="34" as="geometry"/>
                </mxCell>
                <mxCell id="lCEBx5OaHAJliDRhZ6I8-5" value="Generate&lt;br&gt;key and csr" style="edgeStyle=orthogonalEdgeStyle;html=1;align=left;spacingLeft=2;endArrow=block;rounded=0;entryX=0.97;entryY=0.824;exitX=1.124;exitY=0.201;exitDx=0;exitDy=0;exitPerimeter=0;entryDx=0;entryDy=0;entryPerimeter=0;" parent="1" source="cHNWFu6GlAEhoqhcr353-1" target="cHNWFu6GlAEhoqhcr353-1" edge="1">
                    <mxGeometry relative="1" as="geometry">
                        <mxPoint x="220" y="230" as="sourcePoint"/>
                        <Array as="points">
                            <mxPoint x="225" y="198"/>
                            <mxPoint x="225" y="219"/>
                        </Array>
                    </mxGeometry>
                </mxCell>
                <mxCell id="cHNWFu6GlAEhoqhcr353-2" value="config store&lt;br&gt;(postgres)" style="shape=umlLifeline;perimeter=lifelinePerimeter;whiteSpace=wrap;html=1;container=1;collapsible=0;recursiveResize=0;outlineConnect=0;" parent="1" vertex="1">
                    <mxGeometry x="260" y="90" width="100" height="470" as="geometry"/>
                </mxCell>
                <mxCell id="cHNWFu6GlAEhoqhcr353-7" value="fetch csr" style="edgeStyle=none;rounded=0;orthogonalLoop=1;jettySize=auto;html=1;startArrow=none;startFill=0;endArrow=classic;endFill=1;" parent="1" source="lCEBx5OaHAJliDRhZ6I8-4" target="cHNWFu6GlAEhoqhcr353-2" edge="1">
                    <mxGeometry relative="1" as="geometry"/>
                </mxCell>
                <mxCell id="cHNWFu6GlAEhoqhcr353-8" value="store key and csr" style="edgeStyle=none;rounded=0;orthogonalLoop=1;jettySize=auto;html=1;startArrow=none;startFill=0;endArrow=classic;endFill=1;exitX=1.131;exitY=0.805;exitDx=0;exitDy=0;exitPerimeter=0;" parent="1" source="lCEBx5OaHAJliDRhZ6I8-6" target="cHNWFu6GlAEhoqhcr353-2" edge="1">
                    <mxGeometry relative="1" as="geometry"/>
                </mxCell>
                <mxCell id="cHNWFu6GlAEhoqhcr353-9" value="init half-done&lt;br&gt;waiting for signed cert&lt;br&gt;" style="html=1;verticalAlign=bottom;endArrow=open;dashed=1;endSize=8;exitX=-0.1;exitY=1.002;exitDx=0;exitDy=0;exitPerimeter=0;" parent="1" source="lCEBx5OaHAJliDRhZ6I8-6" target="lCEBx5OaHAJliDRhZ6I8-18" edge="1">
                    <mxGeometry x="-0.0298" relative="1" as="geometry">
                        <mxPoint x="79.5" y="327" as="targetPoint"/>
                        <mxPoint x="198" y="327" as="sourcePoint"/>
                        <Array as="points"/>
                        <mxPoint as="offset"/>
                    </mxGeometry>
                </mxCell>
                <mxCell id="cHNWFu6GlAEhoqhcr353-10" value="Store signed cert" style="edgeStyle=none;rounded=0;orthogonalLoop=1;jettySize=auto;html=1;startArrow=none;startFill=0;endArrow=classic;endFill=1;" parent="1" source="lCEBx5OaHAJliDRhZ6I8-7" target="cHNWFu6GlAEhoqhcr353-2" edge="1">
                    <mxGeometry relative="1" as="geometry"/>
                </mxCell>
            </root>
        </mxGraphModel>
    </diagram>
</mxfile>
